<?xml version="1.0" encoding="utf-8"?>
<!-- Generator: Adobe Illustrator 19.0.0, SVG Export Plug-In . SVG Version: 6.00 Build 0)  -->
<svg version="1.1" id="图层_1" xmlns="http://www.w3.org/2000/svg" xmlns:xlink="http://www.w3.org/1999/xlink" x="0px" y="0px"
	 viewBox="0 0 99.2 99.2" enable-background="new 0 0 99.2 99.2" xml:space="preserve">
<g id="XMLID_294_">
	<g id="XMLID_206_">
		<path id="XMLID_216_" fill="#D3BE72" d="M53.6,23.9l-30,30.2c-6.1,6.1-6.1,16,0,22s15.9,5.9,22-0.2l30-30.2c6.1-6.1,6.1-16,0-22
			S59.7,17.7,53.6,23.9z M72.4,42.5l-30,30.2c-4.3,4.4-11.3,4.4-15.6,0.2s-4.3-11.3,0-15.6l30-30.2c4.3-4.4,11.3-4.4,15.6-0.2
			S76.7,38.1,72.4,42.5z"/>
		<g id="XMLID_211_">
			<g id="XMLID_212_">
				<path id="XMLID_213_" fill="#1B6385" d="M75,74.8c-5.8,5.9-15.8,6.4-21.7,0.6l-30.2-30c-5.9-5.8-5.4-15.8,0.4-21.7
					c5.8-5.9,15.8-6.4,21.7-0.6l30.2,30C81.3,58.9,80.8,69,75,74.8z M25.8,26c-4.6,4.6-4.4,12,0.2,16.6l30.2,30
					c4.6,4.6,12,4.6,16.6,0c4.6-4.6,4.4-12-0.2-16.6L42.4,26C37.7,21.5,30.4,21.4,25.8,26z"/>
			</g>
		</g>
		<path id="XMLID_208_" fill="#9A4F51" d="M22.9,23.5c-6.2,6.2-6.2,16.2-0.1,22.3l30.2,30c6.1,6.1,16.1,5.9,22.3-0.3
			c6.2-6.2,6.2-16.2,0.1-22.3l-30.2-30C39.1,17.1,29.1,17.2,22.9,23.5z M41.7,26.7l30.2,30c4.4,4.3,4.4,11.3,0.2,15.6
			c-4.3,4.3-11.3,4.3-15.6,0l-30.2-30c-4.4-4.3-4.4-11.3-0.2-15.6C30.4,22.3,37.4,22.3,41.7,26.7z"/>
		<path id="XMLID_188_" fill="#E0E6ED" d="M26.8,57.2l3.7-3.8l-3.2-3.2l-3.7,3.8c-6.1,6.1-6.1,16,0,22s15.9,5.9,22-0.2l17.5-17.7
			l-2.8-3.5L42.4,72.7c-4.3,4.4-11.3,4.4-15.6,0.2S22.5,61.6,26.8,57.2z"/>
	</g>
	<g id="XMLID_23_">
		<g id="XMLID_353_">
			<path id="XMLID_354_" fill="#E0E6ED" d="M69.6,60.7c-6,0-10.9-4.9-10.9-10.9S63.6,39,69.6,39s10.9,4.9,10.9,10.9
				S75.5,60.7,69.6,60.7z M69.6,39.9c-5.5,0-10,4.5-10,10s4.5,10,10,10c5.5,0,10-4.5,10-10S75.1,39.9,69.6,39.9z"/>
		</g>
	</g>
	<circle id="XMLID_85_" fill="#C9CACA" cx="76.4" cy="42.5" r="1.3"/>
	<g id="XMLID_96_">
		
			<image overflow="visible" opacity="0.75" width="28" height="28" id="XMLID_322_" xlink:href="53A877AA.png"  transform="matrix(0.24 0 0 0.24 72.6268 38.6498)">
		</image>
		<g id="XMLID_310_">
			<circle id="XMLID_321_" fill="#FFFFFF" cx="75.9" cy="41.9" r="2.5"/>
		</g>
	</g>
	<path id="XMLID_110_" fill="#D3BE72" d="M45.5,38.4l12.3-12.5c0.8-0.8,1.7-1.5,2.7-2v-1.3H55c-0.1,0.1-0.1,0.1-0.2,0.2L39.2,38.4
		H45.5z"/>
	<polygon id="XMLID_114_" fill="#9A4F51" points="52,36.9 66.9,51.6 73.9,51.6 59,36.9 	"/>
</g>
</svg>
